<svg width="3558" height="372" viewBox="0 0 3558 372" fill="none" xmlns="http://www.w3.org/2000/svg">
<path d="M2849.85 105.673C2849.85 147.15 2826.7 170.336 2791.48 180.922V181.894C2826.7 188.663 2849.85 218.078 2849.85 257.647V276.477C2849.85 303.984 2849.85 320.366 2866.73 338.728V358.027H2729.23C2712.35 348.846 2707.05 328.611 2707.05 309.781V268.772C2707.05 240.797 2699.82 229.203 2677.14 229.203H2664.61V322.814L2665.07 358.027H2519.36L2519.83 322.814V48.2459L2519.36 13.0337H2741.8C2815.61 13.0337 2849.88 45.3655 2849.88 103.26V105.673H2849.85Z" fill="white"/>
<path d="M3093.02 13.0337H2885.06L2885.53 48.2459V322.778L2885.06 357.991H3093.02C3174.57 357.991 3210.75 302.04 3210.75 229.671V141.389C3211.22 64.6638 3171.19 13.0697 3093.02 13.0697V13.0337ZM3084.81 169.868C3082.04 171.993 3079.3 174.153 3076.53 176.277C3072.35 179.517 3068.18 182.722 3064 185.962C3062.27 187.294 3060.54 188.663 3058.78 189.995C3058.56 190.175 3058.53 190.355 3058.6 190.607C3059.18 192.407 3059.75 194.243 3060.29 196.043C3060.8 197.592 3061.26 199.14 3061.77 200.724C3062.27 202.272 3062.74 203.856 3063.21 205.405C3063.68 206.953 3064.18 208.537 3064.68 210.085C3065.19 211.633 3065.66 213.181 3066.16 214.766C3066.67 216.35 3067.13 217.898 3067.64 219.482C3068.14 221.066 3068.61 222.651 3069.11 224.235C3069.29 224.775 3069.47 225.351 3069.55 225.963C3069.4 225.891 3069.26 225.783 3069.11 225.711C3063.53 221.426 3057.92 217.106 3052.34 212.821C3048.59 209.941 3044.88 207.097 3041.14 204.216C3040.81 203.964 3040.63 204 3040.35 204.216C3037.07 206.737 3033.79 209.257 3030.52 211.777C3024.61 216.314 3018.71 220.814 3012.84 225.351C3012.55 225.567 3012.23 225.783 3011.9 226.035C3011.9 226.035 3011.83 225.963 3011.79 225.963C3011.97 225.315 3012.15 224.703 3012.37 224.055C3012.87 222.471 3013.38 220.886 3013.85 219.302C3014.35 217.718 3014.85 216.134 3015.32 214.55C3015.83 213.001 3016.3 211.417 3016.76 209.869C3017.23 208.321 3017.74 206.737 3018.24 205.189C3018.74 203.604 3019.21 202.056 3019.72 200.472C3020.22 198.888 3020.72 197.304 3021.19 195.719C3021.7 194.171 3022.13 192.587 3022.67 191.039C3022.92 190.355 3022.7 190.031 3022.2 189.635C3015.79 184.738 3009.42 179.805 3003.01 174.909C3000.24 172.785 2997.5 170.66 2994.73 168.536C2994.66 168.464 2994.58 168.392 2994.4 168.248C2994.73 168.248 2994.94 168.212 2995.16 168.212C3006.25 168.212 3017.34 168.212 3028.39 168.212C3029.11 168.212 3029.08 168.212 3029.29 167.528C3029.83 165.836 3030.41 164.18 3030.95 162.487C3031.45 161.011 3031.92 159.535 3032.43 158.095C3032.97 156.439 3033.54 154.747 3034.08 153.09C3034.62 151.434 3035.2 149.742 3035.74 148.086C3036.28 146.43 3036.85 144.773 3037.39 143.117C3037.9 141.641 3038.37 140.165 3038.87 138.725C3039.41 137.14 3039.91 135.52 3040.45 133.936C3040.45 133.864 3040.56 133.828 3040.6 133.756C3040.67 133.828 3040.78 133.864 3040.78 133.936C3041.25 135.34 3041.71 136.744 3042.18 138.149C3042.72 139.805 3043.3 141.461 3043.84 143.117C3044.41 144.809 3044.95 146.466 3045.53 148.158C3046.07 149.814 3046.65 151.506 3047.19 153.162C3047.73 154.819 3048.3 156.475 3048.84 158.131C3049.42 159.823 3049.96 161.479 3050.54 163.172C3051.04 164.648 3051.51 166.124 3051.98 167.564C3052.19 168.248 3052.16 168.248 3052.88 168.248C3063.96 168.248 3075.05 168.248 3086.11 168.248C3086.32 168.248 3086.54 168.248 3086.76 168.284C3086.76 168.284 3086.76 168.356 3086.76 168.392C3086.07 168.932 3085.39 169.472 3084.67 170.012L3084.81 169.868Z" fill="white"/>
<path d="M2849.85 105.673C2849.85 147.15 2826.7 170.336 2791.48 180.922V181.894C2826.7 188.663 2849.85 218.078 2849.85 257.647V276.477C2849.85 303.984 2849.85 320.366 2866.73 338.728V358.027H2519.36L2519.83 322.814V48.2459L2519.36 13.0337H2741.8C2815.61 13.0337 2849.88 45.3655 2849.88 103.26V105.673H2849.85Z" fill="white"/>
<path d="M1348 357.991H966.354L1060.43 13.0337H1253.42L1347.96 357.991H1348Z" fill="white"/>
<path d="M500.782 223.875V250.41H605.483V357.991H355.577L356.045 322.778V48.2459L355.577 13.0337H605.483V120.614H500.782V145.205H594.862V223.839H500.782V223.875Z" fill="white"/>
<path d="M1532.78 124.971V322.778L1533.24 357.991H1387.53L1388 322.778V124.971H1320.46V13.0337H1600.28V124.971H1532.74H1532.78Z" fill="white"/>
<path d="M1768.21 223.875V250.41H1872.91V357.991H1623L1623.47 322.778V48.2459L1623 13.0337H1872.91V120.614H1768.21V145.205H1862.29V223.839H1768.21V223.875Z" fill="white"/>
<path d="M1905.2 357.991L1905.67 308.305V48.2459L1905.2 13.0337H2050.91L2050.44 48.2459V245.585H2155.14V357.991H1905.24H1905.2Z" fill="white"/>
<path d="M3349.66 240.761V243.641C3349.66 268.232 3358.84 286.09 3384.87 286.09C3399.81 286.09 3408.52 279.825 3408.52 268.232C3408.52 246.521 3378.6 237.34 3347.75 228.195L3333.28 223.839C3275.38 206.953 3229.08 187.654 3229.08 118.166C3229.08 48.6778 3278.77 0 3385.84 0C3480.89 0 3542.68 36.6523 3542.68 113.882V119.174H3419.65V114.35C3419.65 94.5832 3408.06 84.9341 3391.67 84.9341C3377.2 84.9341 3369.5 92.639 3369.5 101.352C3369.5 118.706 3398.44 124.503 3429.33 132.712L3443.81 136.564C3501.7 152.01 3557.19 174.189 3557.19 253.326C3557.19 332.464 3505.09 371.06 3396.53 371.06C3296.19 371.06 3227.67 336.316 3227.67 248.501V240.797H3349.73L3349.66 240.761Z" fill="white"/>
<path d="M1212.3 170.769L1172.88 185.206L1166.18 149.994L1185.87 159.175L1188.9 153.451L1146.77 128.32C1146.74 128.14 1146.7 127.96 1146.66 127.78C1145.22 123.135 1140.33 120.543 1135.68 121.983C1131.04 123.423 1128.45 128.32 1129.89 132.964C1131.33 137.609 1136.22 140.201 1140.87 138.761C1141.08 138.689 1141.26 138.581 1141.48 138.509L1159.81 147.042L1167.44 187.223L1093.74 214.226V223.623L1105.8 219.194V357.955H1203.98V183.226L1212.3 180.166V170.769Z" fill="#C01C7B"/>
<path d="M2622.52 170.769L2661.94 185.206L2668.64 149.994L2648.94 159.175L2645.92 153.451L2688.04 128.32C2688.08 128.14 2688.12 127.96 2688.15 127.78C2689.59 123.135 2694.49 120.543 2699.13 121.983C2703.78 123.423 2706.37 128.32 2704.93 132.964C2703.49 137.609 2698.59 140.201 2693.95 138.761C2693.73 138.689 2693.55 138.581 2693.34 138.509L2675.01 147.042L2667.38 187.223L2741.08 214.226V223.623L2729.02 219.194V357.955H2630.83V183.226L2622.52 180.166V170.769Z" fill="#C01C7B"/>
<path d="M916.67 181.893V179.949C952.386 168.86 968.3 141.352 968.3 104.196V100.811C968.3 40.5043 919.082 12.9971 843.329 12.9971H637.78L638.248 48.2093V322.742L637.276 357.954H850.53C920.486 357.954 970.676 333.363 970.676 265.315V260.49C970.676 214.657 958.615 193.414 916.634 181.857L916.67 181.893ZM847.829 227.475C845.057 229.599 842.285 231.759 839.548 233.883C835.372 237.124 831.195 240.328 827.019 243.568C825.291 244.901 823.562 246.269 821.798 247.601C821.582 247.781 821.546 247.961 821.618 248.213C822.194 250.013 822.77 251.849 823.31 253.65C823.814 255.198 824.283 256.746 824.787 258.33C825.291 259.878 825.759 261.463 826.227 263.011C826.731 264.559 827.199 266.143 827.703 267.691C828.207 269.239 828.675 270.788 829.179 272.372C829.683 273.956 830.151 275.504 830.655 277.088C831.159 278.673 831.627 280.257 832.131 281.841C832.312 282.381 832.492 282.957 832.564 283.569C832.42 283.497 832.275 283.389 832.131 283.317C826.551 279.033 820.934 274.712 815.354 270.428C811.609 267.547 807.901 264.703 804.156 261.823C803.832 261.571 803.652 261.607 803.364 261.823C800.088 264.343 796.811 266.863 793.535 269.384C787.63 273.92 781.726 278.421 775.857 282.957C775.569 283.173 775.245 283.389 774.921 283.641C774.921 283.641 774.849 283.569 774.813 283.569C774.993 282.921 775.173 282.309 775.389 281.661C775.893 280.077 776.397 278.493 776.865 276.908C777.369 275.324 777.873 273.74 778.341 272.156C778.845 270.608 779.313 269.023 779.781 267.475C780.249 265.927 780.753 264.343 781.257 262.795C781.762 261.211 782.23 259.662 782.734 258.078C783.238 256.494 783.742 254.91 784.21 253.326C784.714 251.777 785.146 250.193 785.686 248.645C785.938 247.961 785.722 247.637 785.218 247.241C778.809 242.344 772.436 237.412 766.028 232.515C763.255 230.391 760.519 228.267 757.747 226.142C757.675 226.07 757.603 225.998 757.423 225.854C757.747 225.854 757.963 225.818 758.179 225.818C769.268 225.818 780.357 225.818 791.411 225.818C792.131 225.818 792.095 225.818 792.311 225.134C792.851 223.442 793.427 221.786 794.003 220.094C794.507 218.617 794.975 217.141 795.479 215.701C796.019 214.045 796.595 212.353 797.135 210.697C797.675 209.04 798.251 207.348 798.792 205.692C799.332 204.036 799.908 202.38 800.448 200.723C800.952 199.247 801.42 197.771 801.924 196.331C802.464 194.747 802.968 193.126 803.508 191.542C803.508 191.47 803.616 191.434 803.652 191.362C803.724 191.434 803.832 191.47 803.832 191.542C804.3 192.946 804.768 194.351 805.236 195.755C805.776 197.411 806.352 199.067 806.893 200.723C807.469 202.416 808.009 204.072 808.585 205.764C809.125 207.42 809.701 209.112 810.241 210.769C810.781 212.425 811.357 214.081 811.897 215.737C812.473 217.429 813.013 219.086 813.589 220.778C814.093 222.254 814.561 223.73 815.029 225.17C815.245 225.854 815.209 225.854 815.93 225.854C827.019 225.854 838.108 225.854 849.162 225.854C849.378 225.854 849.594 225.854 849.81 225.89C849.81 225.89 849.81 225.962 849.81 225.998C849.126 226.538 848.441 227.078 847.721 227.619L847.829 227.475ZM847.829 112.261C845.057 114.385 842.285 116.545 839.548 118.67C835.372 121.91 831.195 125.114 827.019 128.355C825.291 129.687 823.562 131.055 821.798 132.387C821.582 132.567 821.546 132.747 821.618 132.999C822.194 134.8 822.77 136.636 823.31 138.436C823.814 139.984 824.283 141.532 824.787 143.117C825.291 144.665 825.759 146.249 826.227 147.797C826.731 149.345 827.199 150.929 827.703 152.478C828.207 154.026 828.675 155.574 829.179 157.158C829.683 158.742 830.151 160.291 830.655 161.875C831.159 163.459 831.627 165.043 832.131 166.627C832.312 167.167 832.492 167.743 832.564 168.355C832.42 168.283 832.275 168.175 832.131 168.103C826.551 163.819 820.934 159.498 815.354 155.214C811.609 152.334 807.901 149.489 804.156 146.609C803.832 146.357 803.652 146.393 803.364 146.609C800.088 149.129 796.811 151.65 793.535 154.17C787.63 158.706 781.726 163.207 775.857 167.743C775.569 167.959 775.245 168.175 774.921 168.428C774.921 168.428 774.849 168.355 774.813 168.355C774.993 167.707 775.173 167.095 775.389 166.447C775.893 164.863 776.397 163.279 776.865 161.695C777.333 160.111 777.873 158.526 778.341 156.942C778.845 155.394 779.313 153.81 779.781 152.262C780.249 150.713 780.753 149.129 781.257 147.581C781.762 145.997 782.23 144.449 782.734 142.864C783.238 141.28 783.742 139.696 784.21 138.112C784.714 136.564 785.146 134.98 785.686 133.431C785.938 132.747 785.722 132.423 785.218 132.027C778.809 127.131 772.436 122.198 766.028 117.301C763.255 115.177 760.519 113.053 757.747 110.929C757.675 110.857 757.603 110.785 757.423 110.641C757.747 110.641 757.963 110.605 758.179 110.605C769.268 110.605 780.357 110.605 791.411 110.605C792.131 110.605 792.095 110.605 792.311 109.921C792.851 108.228 793.427 106.572 794.003 104.88C794.507 103.404 794.975 101.928 795.479 100.487C796.019 98.8313 796.595 97.1391 797.135 95.4829C797.675 93.8267 798.251 92.1345 798.792 90.4783C799.332 88.8221 799.908 87.1659 800.448 85.5097C800.952 84.0335 801.42 82.5573 801.924 81.1172C802.464 79.533 802.968 77.9128 803.508 76.3286C803.508 76.2566 803.616 76.2206 803.652 76.1486C803.724 76.2206 803.832 76.2566 803.832 76.3286C804.3 77.7328 804.768 79.1369 805.236 80.5411C805.776 82.1973 806.352 83.8535 806.893 85.5097C807.469 87.2019 808.009 88.8581 808.585 90.5503C809.125 92.2065 809.701 93.8987 810.241 95.5549C810.781 97.2111 811.357 98.8673 811.897 100.523C812.473 102.216 813.013 103.872 813.589 105.564C814.093 107.04 814.561 108.516 815.029 109.957C815.245 110.641 815.209 110.641 815.93 110.641C827.019 110.641 838.108 110.641 849.162 110.641C849.378 110.641 849.594 110.641 849.81 110.677C849.81 110.677 849.81 110.749 849.81 110.785C849.126 111.325 848.441 111.865 847.721 112.405L847.829 112.261Z" fill="white"/>
<path d="M207.961 13.0337H0L0.468056 48.2459V322.778L0 357.991H207.961C289.51 357.991 325.695 302.04 325.695 229.671V141.389C326.163 64.6638 286.126 13.0697 207.961 13.0697V13.0337ZM199.752 169.868C196.979 171.993 194.243 174.153 191.471 176.277C187.294 179.517 183.118 182.722 178.941 185.962C177.213 187.294 175.485 188.663 173.721 189.995C173.505 190.175 173.469 190.355 173.541 190.607C174.117 192.407 174.693 194.243 175.233 196.043C175.737 197.592 176.205 199.14 176.709 200.724C177.213 202.272 177.681 203.856 178.149 205.405C178.617 206.953 179.121 208.537 179.625 210.085C180.129 211.633 180.597 213.181 181.102 214.766C181.606 216.35 182.074 217.898 182.578 219.482C183.082 221.066 183.55 222.651 184.054 224.235C184.234 224.775 184.414 225.351 184.486 225.963C184.342 225.891 184.198 225.783 184.054 225.711C178.473 221.426 172.857 217.106 167.276 212.821C163.531 209.941 159.823 207.097 156.079 204.216C155.754 203.964 155.574 204 155.286 204.216C152.01 206.737 148.734 209.257 145.457 211.777C139.553 216.314 133.648 220.814 127.779 225.351C127.491 225.567 127.167 225.783 126.843 226.035C126.843 226.035 126.771 225.963 126.735 225.963C126.915 225.315 127.095 224.703 127.311 224.055C127.815 222.471 128.319 220.886 128.787 219.302C129.291 217.718 129.795 216.134 130.263 214.55C130.768 213.001 131.236 211.417 131.704 209.869C132.172 208.321 132.676 206.737 133.18 205.189C133.684 203.604 134.152 202.056 134.656 200.472C135.16 198.888 135.664 197.304 136.132 195.719C136.636 194.171 137.068 192.587 137.608 191.039C137.86 190.355 137.644 190.031 137.14 189.635C130.732 184.738 124.359 179.805 117.95 174.909C115.178 172.785 112.441 170.66 109.669 168.536C109.597 168.464 109.525 168.392 109.345 168.248C109.669 168.248 109.885 168.212 110.101 168.212C121.19 168.212 132.28 168.212 143.333 168.212C144.053 168.212 144.017 168.212 144.233 167.528C144.773 165.836 145.349 164.18 145.889 162.487C146.393 161.011 146.861 159.535 147.365 158.095C147.906 156.439 148.482 154.747 149.022 153.09C149.562 151.434 150.138 149.742 150.678 148.086C151.218 146.43 151.794 144.773 152.334 143.117C152.838 141.641 153.306 140.165 153.81 138.725C154.35 137.14 154.854 135.52 155.394 133.936C155.394 133.864 155.502 133.828 155.538 133.756C155.61 133.828 155.718 133.864 155.718 133.936C156.187 135.34 156.655 136.744 157.123 138.149C157.663 139.805 158.239 141.461 158.779 143.117C159.355 144.809 159.895 146.466 160.471 148.158C161.011 149.814 161.587 151.506 162.127 153.162C162.667 154.819 163.243 156.475 163.783 158.131C164.36 159.823 164.9 161.479 165.476 163.172C165.98 164.648 166.448 166.124 166.916 167.564C167.132 168.248 167.096 168.248 167.816 168.248C178.905 168.248 189.995 168.248 201.048 168.248C201.264 168.248 201.48 168.248 201.696 168.284C201.696 168.284 201.696 168.356 201.696 168.392C201.012 168.932 200.328 169.472 199.608 170.012L199.752 169.868Z" fill="white"/>
<path d="M2327.82 0C2165.22 0 2165.22 96.0234 2165.22 161.155V195.899C2165.22 260.563 2165.22 371.024 2327.82 371.024C2490.42 371.024 2490.42 268.736 2490.42 195.899V175.629C2490.42 102.792 2490.42 0 2327.82 0ZM2371.89 169.868C2369.12 171.992 2366.38 174.153 2363.61 176.277C2359.43 179.517 2355.26 182.722 2351.08 185.962C2349.35 187.294 2347.62 188.662 2345.86 189.995C2345.64 190.175 2345.61 190.355 2345.68 190.607C2346.25 192.407 2346.83 194.243 2347.37 196.043C2347.87 197.591 2348.34 199.14 2348.85 200.724C2349.35 202.272 2349.82 203.856 2350.29 205.404C2350.75 206.953 2351.26 208.537 2351.76 210.085C2352.27 211.633 2352.73 213.181 2353.24 214.766C2353.74 216.35 2354.21 217.898 2354.72 219.482C2355.22 221.066 2355.69 222.65 2356.19 224.235C2356.37 224.775 2356.55 225.351 2356.62 225.963C2356.48 225.891 2356.34 225.783 2356.19 225.711C2350.61 221.426 2344.99 217.106 2339.41 212.821C2335.67 209.941 2331.96 207.097 2328.22 204.216C2327.89 203.964 2327.71 204 2327.42 204.216C2324.15 206.737 2320.87 209.257 2317.59 211.777C2311.69 216.314 2305.79 220.814 2299.92 225.351C2299.63 225.567 2299.3 225.783 2298.98 226.035C2298.98 226.035 2298.91 225.963 2298.87 225.963C2299.05 225.315 2299.23 224.703 2299.45 224.055C2299.95 222.47 2300.46 220.886 2300.92 219.302C2301.43 217.718 2301.93 216.134 2302.4 214.549C2302.9 213.001 2303.37 211.417 2303.84 209.869C2304.31 208.321 2304.81 206.737 2305.32 205.188C2305.82 203.604 2306.29 202.056 2306.79 200.472C2307.3 198.888 2307.8 197.303 2308.27 195.719C2308.77 194.171 2309.21 192.587 2309.75 191.039C2310 190.355 2309.78 190.031 2309.28 189.635C2302.87 184.738 2296.5 179.805 2290.09 174.909C2287.32 172.785 2284.58 170.66 2281.81 168.536C2281.73 168.464 2281.66 168.392 2281.48 168.248C2281.81 168.248 2282.02 168.212 2282.24 168.212C2293.33 168.212 2304.42 168.212 2315.47 168.212C2316.19 168.212 2316.15 168.212 2316.37 167.528C2316.91 165.836 2317.49 164.18 2318.03 162.487C2318.53 161.011 2319 159.535 2319.5 158.095C2320.04 156.439 2320.62 154.746 2321.16 153.09C2321.7 151.434 2322.28 149.742 2322.82 148.086C2323.36 146.429 2323.93 144.773 2324.47 143.117C2324.98 141.641 2325.44 140.165 2325.95 138.724C2326.49 137.14 2326.99 135.52 2327.53 133.936C2327.53 133.864 2327.64 133.828 2327.68 133.756C2327.75 133.828 2327.86 133.864 2327.86 133.936C2328.32 135.34 2328.79 136.744 2329.26 138.148C2329.8 139.805 2330.38 141.461 2330.92 143.117C2331.49 144.809 2332.03 146.465 2332.61 148.158C2333.15 149.814 2333.72 151.506 2334.26 153.162C2334.8 154.818 2335.38 156.475 2335.92 158.131C2336.5 159.823 2337.04 161.479 2337.61 163.171C2338.12 164.648 2338.59 166.124 2339.05 167.564C2339.27 168.248 2339.23 168.248 2339.95 168.248C2351.04 168.248 2362.13 168.248 2373.19 168.248C2373.4 168.248 2373.62 168.248 2373.83 168.284C2373.83 168.284 2373.83 168.356 2373.83 168.392C2373.15 168.932 2372.47 169.472 2371.75 170.012L2371.89 169.868Z" fill="white"/>
</svg>
